<!DOCTYPE svg PUBLIC "-//W3C//DTD SVG 1.1//EN" "http://www.w3.org/Graphics/SVG/1.1/DTD/svg11.dtd">
<!-- Uploaded to: SVG Repo, www.svgrepo.com, Transformed by: SVG Repo Mixer Tools -->
<svg height="64px" width="64px" version="1.1" id="Layer_1" xmlns="http://www.w3.org/2000/svg" xmlns:xlink="http://www.w3.org/1999/xlink" viewBox="-254 -254 1016.00 1016.00" xml:space="preserve" fill="#000000">
<g id="SVGRepo_bgCarrier" stroke-width="0"/>
<g id="SVGRepo_tracerCarrier" stroke-linecap="round" stroke-linejoin="round"/>
<g id="SVGRepo_iconCarrier"> <circle style="fill:#324A5E;" cx="254" cy="254" r="254"/> <circle style="fill:#FFD05B;" cx="253.2" cy="334" r="90.4"/> <path style="fill:#F1543F;" d="M352.8,168.8c-11.2-0.4-23.2,1.6-34.8,6c1.2-4.4,2.8-8.4,4.8-12.4c17.6-40,56.8-72.8,107.2-52.4 c-43.2-40-98.4-34-139.6,10.8c-15.2,16.4-28.4,38-37.6,63.6c-9.2-25.6-22.4-47.6-37.6-63.6C174.4,76,119.2,70.4,76,110 c50-20.8,89.6,12.4,107.2,52.4c2,4,3.6,8.4,4.8,12.4c-11.6-4.4-23.2-6.4-34.8-6c-46.4,1.2-86.4,39.2-99.6,99.6 C79.2,216,120,208,148.4,222c19.2,9.2,32.8,27.2,40,49.2H318c6.8-22,20.8-40,40-49.2c28.4-14,68.8-6,94.8,46.4 C439.6,208,399.6,170,352.8,168.8z"/> <g> <circle style="fill:#FFFFFF;" cx="450" cy="264.8" r="20.8"/> <circle style="fill:#FFFFFF;" cx="428.8" cy="106.8" r="17.6"/> <circle style="fill:#FFFFFF;" cx="58" cy="264.8" r="20.8"/> <circle style="fill:#FFFFFF;" cx="79.2" cy="106.8" r="17.6"/> </g> <circle style="fill:#324A5E;" cx="284.8" cy="322.4" r="14.8"/> <ellipse transform="matrix(0.7267 -0.6869 0.6869 0.7267 -141.2726 277.4767)" style="fill:#FFFFFF;" cx="278.111" cy="316.297" rx="5.2" ry="2.4"/> <circle style="fill:#324A5E;" cx="221.2" cy="322.4" r="14.8"/> <ellipse transform="matrix(0.7267 -0.687 0.687 0.7267 -158.8096 233.8235)" style="fill:#FFFFFF;" cx="214.446" cy="316.491" rx="5.2" ry="2.4"/> </g>
</svg>